<svg height="597pt" viewBox="-24 -18 597 597.33332" width="597pt" xmlns="http://www.w3.org/2000/svg"><path d="m113.097656 403.75h-1.027344c-10.015624 0-18.125 8.117188-18.125 18.125s8.109376 18.125 18.125 18.125h1.027344c10.007813 0 18.125-8.117188 18.125-18.125s-8.117187-18.125-18.125-18.125zm0 0"/><path d="m278.570312 285.273438c54.847657-22.582032 104.960938-70.273438 94.058594-126.546876-5.195312-25.679687-22.59375-41.625-45.421875-41.625-13.25 0-28.035156 5.640626-42.75 16.328126-3.542969 2.566406-8.34375 2.539062-11.855469-.078126-14.710937-10.976562-29.542968-16.78125-42.902343-16.78125-22.925781 0-40.222657 16.125-45.148438 42.070313-7.890625 41.140625 18.160157 96.121094 94.019531 126.632813zm0 0"/><path d="m428.589844 513.75v22.222656c.152344 13.320313 11 24.035156 24.324218 24.027344h28.359376c6.324218-.023438 12.375-2.582031 16.796874-7.09375 4.429688-4.515625 6.867188-10.609375 6.769532-16.933594v-29.488281c-6.914063 4.800781-15.148438 7.339844-23.566406 7.265625zm0 0"/><path d="m44.839844 506.484375v29.488281c-.101563 6.324219 2.332031 12.417969 6.761718 16.933594 4.425782 4.511719 10.472657 7.070312 16.792969 7.09375h28.363281c13.320313.007812 24.171876-10.707031 24.332032-24.027344v-22.222656h-52.691406c-8.417969.074219-16.644532-2.464844-23.558594-7.265625zm0 0"/><path d="m138.847656 235c-13.792968.074219-26.097656 8.671875-30.914062 21.597656l-23.460938 63.402344h387.535156l-23.460937-63.402344c-4.816406-12.925781-17.125-21.523437-30.917969-21.597656h-42.765625c-17.105469 26.25-46.277343 51.75-89.882812 69.417969-.195313.078125-.394531.015625-.59375.078125-3.742188 1.394531-7.847657 1.410156-11.597657.058594-.179687-.058594-.363281-.046876-.539062-.121094-43.878906-17.40625-73.164062-43.183594-90.226562-69.433594zm0 0"/><path d="m211.089844 402.5h127.5v38.75h-127.5zm0 0"/><path d="m492.210938 351.308594c-.144532-.140625-.0625-.171875-.199219-.324219l-10.503907-10.984375h-407.480468l-14.710938 13.558594c-.113281.105468-.105468-.027344-.222656.070312-9.136719 7.816406-14.355469 19.269532-14.253906 31.296875v84.699219c-.101563 6.332031 2.328125 12.441406 6.753906 16.972656 4.421875 4.527344 10.472656 7.105469 16.804688 7.152344h412.875c6.335937-.046875 12.382812-2.625 16.808593-7.152344 4.421875-4.53125 6.855469-10.640625 6.757813-16.972656v-88.59375c.0625-11.226562-4.503906-21.976562-12.628906-29.722656zm-379.113282 108.691406h-1.027344c-21.058593 0-38.125-17.070312-38.125-38.125s17.066407-38.125 38.125-38.125h1.027344c21.054688 0 38.125 17.070312 38.125 38.125s-17.070312 38.125-38.125 38.125zm244.242188-10c0 5.523438-4.476563 10-10 10h-146.25c-5.523438 0-10-4.476562-10-10v-57.5c0-5.523438 4.476562-10 10-10h146.25c5.523437 0 10 4.476562 10 10zm80.269531 10h-1.03125c-21.054687 0-38.125-17.070312-38.125-38.125s17.070313-38.125 38.125-38.125h1.03125c21.054687 0 38.125 17.070312 38.125 38.125s-17.070313 38.125-38.125 38.125zm0 0"/><path d="m437.609375 403.75h-1.03125c-10.011719 0-18.125 8.117188-18.125 18.125s8.113281 18.125 18.125 18.125h1.03125c10.007813 0 18.125-8.117188 18.125-18.125s-8.117187-18.125-18.125-18.125zm0 0"/><path d="m131.683594 28.335938c-3.496094-17.242188-15.070313-27.949219-30.222656-27.949219-8.890626 0-19.320313 4.011719-29.375 11.308593-3.539063 2.566407-8.34375 2.539063-11.851563-.078124-10.179687-7.597657-20.367187-11.617188-29.453125-11.617188-15.203125 0-26.707031 10.824219-30.015625 28.25-5.472656 28.53125 12.695313 66.691406 65.429687 88.296875 52.742188-22.046875 70.933594-60.046875 65.488282-88.210937zm0 0"/><path d="m518.691406.386719c-8.890625 0-19.320312 4.011719-29.375 11.308593-3.539062 2.566407-8.34375 2.539063-11.851562-.078124-10.179688-7.597657-20.363282-11.617188-29.453125-11.617188-15.203125 0-26.707031 10.824219-30.011719 28.25-5.476562 28.527344 12.695312 66.6875 65.433594 88.292969 52.734375-22.050781 70.925781-60.054688 65.484375-88.214844-3.492188-17.234375-15.070313-27.941406-30.226563-27.941406zm0 0"/></svg>