<svg height="448pt" viewBox="0 -64 448 448" width="448pt" xmlns="http://www.w3.org/2000/svg"><path d="m136.640625 64h-32.640625v64h72v-64zm0 0"/><path d="m0 64h88v64h-88zm0 0"/><path d="m184 144h-80v36.496094c4.835938-2.902344 10.359375-4.457032 16-4.496094 17.671875 0 32 14.328125 32 32 0 17.375-37.777344 64-56 64s-56-46.625-56-64c0-17.671875 14.328125-32 32-32 5.640625.039062 11.164062 1.59375 16 4.496094v-36.496094h-80v176h176zm0 0"/><path d="m72 192c-8.835938 0-16 7.164062-16 16 .175781 10.03125 30.9375 46.824219 40.128906 48 8.933594-1.183594 39.695313-37.976562 39.871094-48 0-8.835938-7.164062-16-16-16s-16 7.164062-16 16v2.160156c0 4.417969-3.582031 8-8 8s-8-3.582031-8-8v-2.160156c0-8.835938-7.164062-16-16-16zm0 0"/><path d="m190.480469 48c-4.082031-31.375-15.28125-48-22.480469-48s-18.398438 16.625-22.480469 48zm0 0"/><path d="m448 64h-176v64h176zm0 0"/><path d="m264 144h176v176h-176zm0 0"/><path d="m244.167969 32h-40.335938c1.152344 5.199219 2.078125 10.566406 2.742188 16h34.851562c.664063-5.433594 1.589844-10.800781 2.742188-16zm0 0"/><path d="m256 64h-64v64h64zm0 0"/><path d="m200 144h48v176h-48zm0 0"/><path d="m302.480469 48c-4.082031-31.375-15.28125-48-22.480469-48s-18.398438 16.625-22.480469 48zm0 0"/></svg>