<svg id="_x33_0" enable-background="new 0 0 64 64" height="512" viewBox="0 0 64 64" width="512" xmlns="http://www.w3.org/2000/svg"><g><path d="m17.469 26-3.469 4.162v7.707l10.943 6.912 4.647-3.904c1.346-1.131 3.472-1.132 4.819.001l4.646 3.903 10.945-6.911v-11.87h-5.421c-.513 1.543-1.477 2.924-2.801 3.915l-9.778 7.335-9.778-7.335c-1.324-.991-2.288-2.372-2.801-3.915z"/><path d="m21.565 26c.416.903 1.045 1.707 1.856 2.315l8.579 6.435 8.579-6.435c1.516-1.136 2.421-2.946 2.421-4.841 0-1.369-.471-2.712-1.326-3.78l-.681-.852c-.936-1.171-2.333-1.842-3.832-1.842-1.645 0-3.171.816-4.083 2.185l-1.078 1.621-1.079-1.622c-.911-1.368-2.438-2.184-4.082-2.184-1.499 0-2.896.671-3.831 1.842l-.683.852c-.854 1.068-1.325 2.41-1.325 3.78 0 .177.016.352.031.526h10.969v2z"/><path d="m19.031 24c-.011-.175-.031-.35-.031-.526 0-1.821.627-3.608 1.764-5.03l.683-.852c1.317-1.648 3.282-2.592 5.392-2.592 1.991 0 3.86.852 5.161 2.315 1.302-1.464 3.17-2.315 5.161-2.315 2.109 0 4.075.944 5.394 2.592l.681.852c1.137 1.421 1.764 3.208 1.764 5.03 0 .177-.02.351-.031.526h5.031v-13h-32v-2c1.654 0 3-1.346 3-3s-1.346-3-3-3c-2.317 0-4 1.825-4 4.341v12.498l3.469 4.161z"/><path d="m52 20.766v8.468l7.057-4.234z"/><path d="m52 36.607 4.408-2.784-3.063-3.064-1.345.807z"/><path d="m51 9c1.654 0 3-1.346 3-3s-1.346-3-3-3h-29.002c.629.836 1.002 1.875 1.002 3s-.373 2.164-1.002 3z"/><path d="m12.431 28.921 2.433-2.921h-6.395l-3.334 4h4.992c.893 0 1.732-.394 2.304-1.079z"/><path d="m30.879 42.408-22.134 18.592h46.51l-22.133-18.591c-.627-.527-1.618-.526-2.243-.001z"/><path d="m14.865 24-2.435-2.92c-.571-.686-1.41-1.08-2.303-1.08h-4.992l3.334 4z"/><path d="m57 59.853v-24.038l-16.336 10.317z"/><path d="m9.414 32-1.823 1.823 4.409 2.784v-4.978c-.588.238-1.221.371-1.873.371z"/><path d="m7 35.815v24.038l16.336-13.721z"/></g></svg>