<svg id="Layer_1" enable-background="new 0 0 512 512" height="512" viewBox="0 0 512 512" width="512" xmlns="http://www.w3.org/2000/svg"><g><circle cx="392.265" cy="72.387" r="38.331"/><circle cx="115.96" cy="60.332" r="42.92"/><path d="m510.87 282.718c-34.512-94.336-45.897-127.707-45.897-127.707l-6.688-84.451c-1.319-16.657-8.805-32.075-21.077-43.414s-28.233-17.584-44.942-17.584-32.67 6.245-44.943 17.584c-12.259 11.326-19.741 26.723-21.073 43.357l-7.135 76.698-21.043 23.044-18.997-25.333c-.666.664-1.359 1.304-2.084 1.912l-26.223 21.995 31.107 41.482c6.941 9.256 20.621 9.954 28.454 1.376l34.862-38.177-38.234 193.8c-1.963 9.949 5.652 19.213 15.793 19.213h20.336v91.064c0 12.257 9.936 22.194 22.194 22.194s22.194-9.937 22.194-22.194v-91.064h9.583v91.064c0 12.257 9.936 22.194 22.194 22.194s22.194-9.937 22.194-22.194v-91.064h20.335c10.141 0 17.756-9.264 15.793-19.213l-29.449-149.267c13.355 37.3 27.797 76.813 28.007 77.387 3.514 9.61 14.142 14.521 23.721 11.02 9.593-3.508 14.526-14.128 11.018-23.722zm-86.565-159.781h-59.607c-10.095 0-19.913 2.907-28.322 8.201l5.51-59.23.009-.107c2.066-26.095 24.191-46.537 50.369-46.537 26.177 0 48.302 20.442 50.369 46.537l4.63 58.467c-6.582-4.876-14.246-7.331-22.958-7.331z"/><path d="m271.982 108.629c-7.343-8.756-20.438-9.887-29.175-2.559l-54.885 46.034h-.001l-44.75-13.177 26.91.839c-2.504-13.465-14.305-23.662-28.496-23.662h-51.702c-2.088 0-4.122.225-6.084.645l-22.05-6.348-21.412-63.463c-3.657-10.837-15.408-16.658-26.243-13.002-10.837 3.656-16.658 15.405-13.002 26.242l24.88 73.742c2.172 6.438 7.364 11.4 13.893 13.28l21.024 6.053v140.316l-3.099 74.044-41.405 100.498c-5.228 12.69.82 27.215 13.51 32.443 12.766 5.26 27.247-.897 32.443-13.51l43.074-104.548c1.104-2.68 1.731-5.532 1.852-8.427l3.314-79.175c.015-.348.017-.694.017-1.039h8.389l25.803 70.351-22.919 108.224c-2.843 13.427 5.736 26.616 19.163 29.46 13.428 2.844 26.617-5.738 29.46-19.163l24.4-115.217c.968-4.57.628-9.32-.981-13.706l-23.331-63.61v-90.94l-33.121-18.831 49.415 14.551.012.003c11.226 3.295 19.046-3.953 19.146-4.002l63.392-53.169c8.793-7.376 9.888-20.439 2.559-29.177z"/></g></svg>